<svg width="25" height="25" viewBox="0 0 25 25" fill="none" xmlns="http://www.w3.org/2000/svg"><path d="M7.604 11.467H9.63v2.026H7.604v-2.026zm0 4.053H9.63v2.026H7.604V15.52zm4.052-4.053h2.026v2.026h-2.026v-2.026zm0 4.053h2.026v2.026h-2.026V15.52zm4.053-4.053h2.026v2.026h-2.026v-2.026zm0 4.053h2.026v2.026h-2.026V15.52z" fill="#FDA1C6"/><path d="M5.577 22.612h14.184a2.028 2.028 0 002.026-2.027V6.402a2.028 2.028 0 00-2.026-2.027h-2.026V2.35h-2.027v2.026H9.63V2.35H7.603v2.026H5.577a2.028 2.028 0 00-2.026 2.027v14.183c0 1.118.909 2.027 2.026 2.027zM19.761 8.428v12.157H5.578V8.428h14.184z" fill="#FDA1C6"/></svg>