<svg width="16" height="16" viewBox="0 0 16 16" fill="none" xmlns="http://www.w3.org/2000/svg"><path d="M15.405 0H.656a.625.625 0 00-.625.625c0 1.74.746 3.402 2.047 4.558l2.737 2.433c.475.422.747 1.028.747 1.664v6.094c0 .498.557.797.972.52l3.687-2.458a.625.625 0 00.278-.52V9.28c0-.636.273-1.242.747-1.664l2.737-2.433A6.104 6.104 0 0016.03.625.625.625 0 0015.405 0zm-2.252 4.25l-2.737 2.432A3.478 3.478 0 009.249 9.28v3.303l-2.437 1.624V9.28a3.48 3.48 0 00-1.166-2.598L2.909 4.25a4.855 4.855 0 01-1.587-3H14.74a4.853 4.853 0 01-1.587 3z" fill="#000"/></svg>